<mxfile host="Electron" modified="2023-12-22T15:32:19.204Z" agent="Mozilla/5.0 (X11; Linux x86_64) AppleWebKit/537.36 (KHTML, like Gecko) draw.io/22.0.2 Chrome/114.0.5735.289 Electron/25.8.4 Safari/537.36" etag="Xotg1CnK89I0Ms04vpIw" version="22.0.2" type="device">
  <diagram name="Page-1" id="YBq0UO2vGwqeCDk3y6Ya">
    <mxGraphModel dx="1604" dy="843" grid="1" gridSize="10" guides="1" tooltips="1" connect="1" arrows="1" fold="1" page="1" pageScale="1" pageWidth="850" pageHeight="1100" math="0" shadow="0">
      <root>
        <mxCell id="0" />
        <mxCell id="1" parent="0" />
        <mxCell id="v9i0bqRu3YsyNLqI1SSV-1" value="&amp;lt;&amp;lt;controller&amp;gt;&amp;gt;&lt;br&gt;joinCommunity" style="swimlane;fontStyle=1;align=center;verticalAlign=top;childLayout=stackLayout;horizontal=1;startSize=40;horizontalStack=0;resizeParent=1;resizeParentMax=0;resizeLast=0;collapsible=1;marginBottom=0;whiteSpace=wrap;html=1;" vertex="1" parent="1">
          <mxGeometry x="280" y="260" width="210" height="74" as="geometry" />
        </mxCell>
        <mxCell id="v9i0bqRu3YsyNLqI1SSV-3" value="" style="line;strokeWidth=1;fillColor=none;align=left;verticalAlign=middle;spacingTop=-1;spacingLeft=3;spacingRight=3;rotatable=0;labelPosition=right;points=[];portConstraint=eastwest;strokeColor=inherit;" vertex="1" parent="v9i0bqRu3YsyNLqI1SSV-1">
          <mxGeometry y="40" width="210" height="8" as="geometry" />
        </mxCell>
        <mxCell id="v9i0bqRu3YsyNLqI1SSV-4" value="+ join(professorName : String)" style="text;strokeColor=none;fillColor=none;align=left;verticalAlign=top;spacingLeft=4;spacingRight=4;overflow=hidden;rotatable=0;points=[[0,0.5],[1,0.5]];portConstraint=eastwest;whiteSpace=wrap;html=1;" vertex="1" parent="v9i0bqRu3YsyNLqI1SSV-1">
          <mxGeometry y="48" width="210" height="26" as="geometry" />
        </mxCell>
        <mxCell id="v9i0bqRu3YsyNLqI1SSV-5" value="&amp;lt;&amp;lt;boundary&amp;gt;&amp;gt;&lt;br&gt;customerJoinCommunity" style="swimlane;fontStyle=1;align=center;verticalAlign=top;childLayout=stackLayout;horizontal=1;startSize=40;horizontalStack=0;resizeParent=1;resizeParentMax=0;resizeLast=0;collapsible=1;marginBottom=0;whiteSpace=wrap;html=1;" vertex="1" parent="1">
          <mxGeometry x="70" y="120" width="270" height="74" as="geometry" />
        </mxCell>
        <mxCell id="v9i0bqRu3YsyNLqI1SSV-7" value="" style="line;strokeWidth=1;fillColor=none;align=left;verticalAlign=middle;spacingTop=-1;spacingLeft=3;spacingRight=3;rotatable=0;labelPosition=right;points=[];portConstraint=eastwest;strokeColor=inherit;" vertex="1" parent="v9i0bqRu3YsyNLqI1SSV-5">
          <mxGeometry y="40" width="270" height="8" as="geometry" />
        </mxCell>
        <mxCell id="v9i0bqRu3YsyNLqI1SSV-8" value="+ joinCommunity(professorName : String)" style="text;strokeColor=none;fillColor=none;align=left;verticalAlign=top;spacingLeft=4;spacingRight=4;overflow=hidden;rotatable=0;points=[[0,0.5],[1,0.5]];portConstraint=eastwest;whiteSpace=wrap;html=1;" vertex="1" parent="v9i0bqRu3YsyNLqI1SSV-5">
          <mxGeometry y="48" width="270" height="26" as="geometry" />
        </mxCell>
        <mxCell id="v9i0bqRu3YsyNLqI1SSV-9" value="&amp;lt;&amp;lt;boundary&amp;gt;&amp;gt;&lt;br&gt;joinCommunityOnReddit" style="swimlane;fontStyle=1;align=center;verticalAlign=top;childLayout=stackLayout;horizontal=1;startSize=40;horizontalStack=0;resizeParent=1;resizeParentMax=0;resizeLast=0;collapsible=1;marginBottom=0;whiteSpace=wrap;html=1;" vertex="1" parent="1">
          <mxGeometry x="460" y="110" width="290" height="74" as="geometry" />
        </mxCell>
        <mxCell id="v9i0bqRu3YsyNLqI1SSV-11" value="" style="line;strokeWidth=1;fillColor=none;align=left;verticalAlign=middle;spacingTop=-1;spacingLeft=3;spacingRight=3;rotatable=0;labelPosition=right;points=[];portConstraint=eastwest;strokeColor=inherit;" vertex="1" parent="v9i0bqRu3YsyNLqI1SSV-9">
          <mxGeometry y="40" width="290" height="8" as="geometry" />
        </mxCell>
        <mxCell id="v9i0bqRu3YsyNLqI1SSV-12" value="+ insertCreds(username : String, password : String)" style="text;strokeColor=none;fillColor=none;align=left;verticalAlign=top;spacingLeft=4;spacingRight=4;overflow=hidden;rotatable=0;points=[[0,0.5],[1,0.5]];portConstraint=eastwest;whiteSpace=wrap;html=1;" vertex="1" parent="v9i0bqRu3YsyNLqI1SSV-9">
          <mxGeometry y="48" width="290" height="26" as="geometry" />
        </mxCell>
        <mxCell id="v9i0bqRu3YsyNLqI1SSV-29" value="&amp;lt;&amp;lt;entity&amp;gt;&amp;gt;&lt;br&gt;professor" style="swimlane;fontStyle=1;align=center;verticalAlign=top;childLayout=stackLayout;horizontal=1;startSize=40;horizontalStack=0;resizeParent=1;resizeParentMax=0;resizeLast=0;collapsible=1;marginBottom=0;whiteSpace=wrap;html=1;" vertex="1" parent="1">
          <mxGeometry x="280" y="450" width="200" height="74" as="geometry" />
        </mxCell>
        <mxCell id="v9i0bqRu3YsyNLqI1SSV-30" value="+ coursesPublished : List&amp;lt;course&amp;gt;" style="text;strokeColor=none;fillColor=none;align=left;verticalAlign=top;spacingLeft=4;spacingRight=4;overflow=hidden;rotatable=0;points=[[0,0.5],[1,0.5]];portConstraint=eastwest;whiteSpace=wrap;html=1;" vertex="1" parent="v9i0bqRu3YsyNLqI1SSV-29">
          <mxGeometry y="40" width="200" height="26" as="geometry" />
        </mxCell>
        <mxCell id="v9i0bqRu3YsyNLqI1SSV-31" value="" style="line;strokeWidth=1;fillColor=none;align=left;verticalAlign=middle;spacingTop=-1;spacingLeft=3;spacingRight=3;rotatable=0;labelPosition=right;points=[];portConstraint=eastwest;strokeColor=inherit;" vertex="1" parent="v9i0bqRu3YsyNLqI1SSV-29">
          <mxGeometry y="66" width="200" height="8" as="geometry" />
        </mxCell>
        <mxCell id="v9i0bqRu3YsyNLqI1SSV-32" value="" style="endArrow=open;endFill=1;endSize=12;html=1;rounded=0;exitX=0.456;exitY=0.962;exitDx=0;exitDy=0;exitPerimeter=0;entryX=0;entryY=0.25;entryDx=0;entryDy=0;" edge="1" parent="1" source="v9i0bqRu3YsyNLqI1SSV-8" target="v9i0bqRu3YsyNLqI1SSV-1">
          <mxGeometry width="160" relative="1" as="geometry">
            <mxPoint x="110" y="320" as="sourcePoint" />
            <mxPoint x="270" y="320" as="targetPoint" />
          </mxGeometry>
        </mxCell>
        <mxCell id="v9i0bqRu3YsyNLqI1SSV-33" value="" style="endArrow=open;endFill=1;endSize=12;html=1;rounded=0;exitX=1;exitY=0.25;exitDx=0;exitDy=0;entryX=0.465;entryY=1.154;entryDx=0;entryDy=0;entryPerimeter=0;" edge="1" parent="1" source="v9i0bqRu3YsyNLqI1SSV-1" target="v9i0bqRu3YsyNLqI1SSV-12">
          <mxGeometry width="160" relative="1" as="geometry">
            <mxPoint x="580" y="320" as="sourcePoint" />
            <mxPoint x="740" y="320" as="targetPoint" />
          </mxGeometry>
        </mxCell>
        <mxCell id="v9i0bqRu3YsyNLqI1SSV-34" value="" style="endArrow=open;endFill=1;endSize=12;html=1;rounded=0;exitX=0.463;exitY=1.154;exitDx=0;exitDy=0;exitPerimeter=0;entryX=0.5;entryY=0;entryDx=0;entryDy=0;" edge="1" parent="1" source="v9i0bqRu3YsyNLqI1SSV-4" target="v9i0bqRu3YsyNLqI1SSV-29">
          <mxGeometry width="160" relative="1" as="geometry">
            <mxPoint x="320" y="420" as="sourcePoint" />
            <mxPoint x="480" y="420" as="targetPoint" />
          </mxGeometry>
        </mxCell>
      </root>
    </mxGraphModel>
  </diagram>
</mxfile>
